<?xml version="1.0" standalone="no"?>
<svg xmlns:xlink="http://www.w3.org/1999/xlink" id="wave" style="transform:rotate(0deg); transition: 0.3s" viewBox="0 0 1440 490" version="1.1" xmlns="http://www.w3.org/2000/svg"><defs><linearGradient id="sw-gradient-0" x1="0" x2="0" y1="1" y2="0"><stop stop-color="rgba(3, 5, 27, 1)" offset="0%"/><stop stop-color="rgba(3, 5, 27, 1)" offset="100%"/></linearGradient></defs><path style="transform:translate(0, 0px); opacity:1" fill="url(#sw-gradient-0)" d="M0,343L80,302.2C160,261,320,180,480,187.8C640,196,800,294,960,294C1120,294,1280,196,1440,155.2C1600,114,1760,131,1920,155.2C2080,180,2240,212,2400,261.3C2560,310,2720,376,2880,351.2C3040,327,3200,212,3360,147C3520,82,3680,65,3840,98C4000,131,4160,212,4320,245C4480,278,4640,261,4800,236.8C4960,212,5120,180,5280,163.3C5440,147,5600,147,5760,155.2C5920,163,6080,180,6240,187.8C6400,196,6560,196,6720,228.7C6880,261,7040,327,7200,334.8C7360,343,7520,294,7680,236.8C7840,180,8000,114,8160,122.5C8320,131,8480,212,8640,261.3C8800,310,8960,327,9120,310.3C9280,294,9440,245,9600,204.2C9760,163,9920,131,10080,138.8C10240,147,10400,196,10560,187.8C10720,180,10880,114,11040,89.8C11200,65,11360,82,11440,89.8L11520,98L11520,490L11440,490C11360,490,11200,490,11040,490C10880,490,10720,490,10560,490C10400,490,10240,490,10080,490C9920,490,9760,490,9600,490C9440,490,9280,490,9120,490C8960,490,8800,490,8640,490C8480,490,8320,490,8160,490C8000,490,7840,490,7680,490C7520,490,7360,490,7200,490C7040,490,6880,490,6720,490C6560,490,6400,490,6240,490C6080,490,5920,490,5760,490C5600,490,5440,490,5280,490C5120,490,4960,490,4800,490C4640,490,4480,490,4320,490C4160,490,4000,490,3840,490C3680,490,3520,490,3360,490C3200,490,3040,490,2880,490C2720,490,2560,490,2400,490C2240,490,2080,490,1920,490C1760,490,1600,490,1440,490C1280,490,1120,490,960,490C800,490,640,490,480,490C320,490,160,490,80,490L0,490Z"/></svg>